<svg width="100" height="100" viewBox="0 0 100 100" fill="none" xmlns="http://www.w3.org/2000/svg">
<g clip-path="url(#clip0)">
<path d="M63.3334 23.3334H56.6668V35H63.3334V23.3334Z" fill="#2E7D32"/>
<path d="M66.6668 35.25V40H53.3334V35.25C53.3395 34.1939 54.194 33.3393 55.25 33.3334H64.75C65.8061 33.3395 66.6607 34.1939 66.6668 35.25Z" fill="#558B30"/>
<path d="M70 40H65C65.9194 40.0027 66.6639 40.7473 66.6666 41.6666V68.3332L63.3332 73.3332H68.3332L71.6666 68.3332V41.6666C71.6639 40.7473 70.9194 40.0027 70 40Z" fill="#2E7D32"/>
<path d="M46.6668 40V73.3334H51.6668V40H46.6668Z" fill="#4CAF50"/>
<path d="M65 40H51.6666V73.3334H63.3332L66.6666 68.3334V41.6666C66.6639 40.7473 65.9194 40.0027 65 40ZM65 53.3334H56.6666V46.6668H65V53.3334Z" fill="#4CAF50"/>
<path d="M31.6668 40L28.3334 41.3V68.3334L31.6668 73.3334H48.3334V40H31.6668ZM43.3334 53.3334H35V46.6668H43.3334V53.3334Z" fill="#4CAF50"/>
<path d="M3.80001 50.8334L28.3334 41.3V68.3334H3.33341C2.41407 68.3307 1.66954 67.5861 1.66681 66.6668V53.9502C1.667 52.5705 2.51427 51.3328 3.80001 50.8334Z" fill="#2E7D32"/>
<path d="M43.3334 46.6666H35V53.3332H43.3334V46.6666Z" fill="#2E7D32"/>
<path d="M51.6668 40H48.3334V73.3334H51.6668V40Z" fill="#2E7D32"/>
<path d="M98.3334 56.4666V66.6666C98.3307 67.5859 97.5861 68.3305 96.6668 68.3332H71.6668V51.6666L77.9668 52.45L78.3334 52.5L96.8668 54.8166C97.701 54.9197 98.3289 55.6262 98.3334 56.4666Z" fill="#2E7D32"/>
<path d="M28.3334 41.3V68.3334H3.33341C2.41407 68.3307 1.66954 67.5861 1.66681 66.6668V53.9502C1.667 52.5707 2.51427 51.333 3.80021 50.8336L28.3334 41.3Z" fill="#8BC34A"/>
<path d="M98.3334 56.4666V66.6666C98.3307 67.5859 97.5861 68.3305 96.6668 68.3332H71.6668V51.6666L77.9668 52.45L78.3334 52.5L96.8668 54.8166C97.701 54.9197 98.3289 55.6262 98.3334 56.4666Z" fill="#558B30"/>
<path d="M93.3334 56.4666V66.6666C93.333 66.9553 93.2524 67.2381 93.1 67.4832V67.4998C92.8082 68.0164 92.26 68.3352 91.6666 68.3332H71.6666V51.6666H73.3332L77.9666 52.45L91.8666 54.8166C92.701 54.9197 93.3289 55.6262 93.3334 56.4666Z" fill="#8BC34A"/>
<path d="M15 83.3334C20.5229 83.3334 25 78.8562 25 73.3334C25 67.8106 20.5229 63.3334 15 63.3334C9.47715 63.3334 5 67.8106 5 73.3334C5 78.8562 9.47715 83.3334 15 83.3334Z" fill="#37474F"/>
<path d="M15 76.6668C16.841 76.6668 18.3334 75.1744 18.3334 73.3334C18.3334 71.4924 16.841 70 15 70C13.159 70 11.6666 71.4924 11.6666 73.3334C11.6666 75.1744 13.159 76.6668 15 76.6668Z" fill="#BDC3C7"/>
<path d="M85 83.3334C90.5229 83.3334 95 78.8562 95 73.3334C95 67.8106 90.5229 63.3334 85 63.3334C79.4772 63.3334 75 67.8106 75 73.3334C75 78.8562 79.4772 83.3334 85 83.3334Z" fill="#37474F"/>
<path d="M85 76.6668C86.841 76.6668 88.3334 75.1744 88.3334 73.3334C88.3334 71.4924 86.841 70 85 70C83.159 70 81.6666 71.4924 81.6666 73.3334C81.6666 75.1744 83.159 76.6668 85 76.6668Z" fill="#BDC3C7"/>
<path d="M51.6668 40H48.3334V73.3334H51.6668V40Z" fill="#2E7D32"/>
<path d="M65.0002 46.6666H56.6668V53.3332H65.0002V46.6666Z" fill="#00BCD4"/>
<path d="M43.3334 46.6666H35V53.3332H43.3334V46.6666Z" fill="#00BCD4"/>
<path d="M46.6668 18.3334H66.6668C67.5873 18.3334 68.3334 19.0797 68.3334 20V23.3334C68.3334 24.2539 67.5873 25 66.6668 25H46.6668V18.3334Z" fill="#558B30"/>
<path d="M97.0737 53.1625L73.3334 50.1953V41.6666C73.3311 39.8266 71.8401 38.3357 70 38.3332H68.3334V35.257C68.3274 33.3793 66.8733 31.8242 65 31.6926V26.6666H66.6666C68.5067 26.6643 69.9975 25.1732 70 23.3332H78.3334C79.2539 23.3332 80 22.5869 80 21.6666C80 20.7463 79.2539 20 78.3334 20H70C69.9977 18.16 68.5067 16.6691 66.6666 16.6666H48.3332C48.3332 15.7461 47.587 15 46.6666 15C45.7463 15 45 15.7463 45 16.6666V26.6666C45 27.5871 45.7463 28.3332 46.6666 28.3332C47.587 28.3332 48.3332 27.5871 48.3332 26.6666H55V31.6926C53.1268 31.8242 51.6727 33.3793 51.6666 35.257V38.3332H31.6666C31.46 38.3334 31.2553 38.3721 31.0627 38.4471L3.19672 49.2807C1.26449 50.0219 -0.0081637 51.8807 3.94224e-05 53.9502V66.6666C0.00238317 68.5066 1.4934 69.9975 3.33344 70H3.82484C2.57758 74.149 3.74457 78.6471 6.85121 81.6666H1.66684C0.746329 81.6666 0.000234735 82.4127 0.000234735 83.3332C0.000234735 84.2537 0.746524 84.9998 1.66684 84.9998H58.3334C59.2539 84.9998 60 84.2535 60 83.3332C60 82.4129 59.2538 81.6666 58.3334 81.6666H23.1489C26.2557 78.6471 27.4225 74.1488 26.1752 70H27.4414L30.2801 74.2578C30.5893 74.7215 31.1096 74.9998 31.6668 75H68.3334C68.8907 74.9998 69.411 74.7215 69.7202 74.2578L72.5588 70H73.825C72.5778 74.149 73.7448 78.6471 76.8514 81.6666H65C64.0795 81.6666 63.3334 82.4127 63.3334 83.3332C63.3334 84.2537 64.0797 84.9998 65 84.9998H98.3334C99.2539 84.9998 100 84.2535 100 83.3332C100 82.4129 99.2538 81.6666 98.3334 81.6666H93.1489C96.2557 78.6471 97.4225 74.1488 96.1752 70H96.6666C98.5067 69.9977 99.9975 68.5066 100 66.6666V56.4664C99.9981 54.7846 98.743 53.3676 97.0737 53.1625ZM48.3334 20H66.6668L66.6686 21.6586L66.6668 21.6666L66.6686 21.6748L66.6704 23.3334H48.3336V20H48.3334ZM61.6668 26.6666V31.6666H58.3334V26.6666H61.6668ZM55 35.2572C55.0004 35.1152 55.1153 35.0004 55.2573 35H64.743C64.885 35.0004 64.9998 35.1152 65.0002 35.2572V38.3334H55.0002V35.2572H55ZM4.40434 52.3861L26.6666 43.7318V55H3.33344V53.9502C3.3309 53.257 3.75727 52.6346 4.40434 52.3861ZM15 81.6666C10.3977 81.6666 6.66664 77.9355 6.66664 73.3332C6.66664 68.7309 10.3977 64.9998 15 64.9998C19.6024 64.9998 23.3334 68.7309 23.3334 73.3332C23.328 77.9336 19.6002 81.6613 15 81.6666ZM15 61.6666C11.1873 61.6693 7.61703 63.5367 5.43988 66.6666H3.33344V58.3332H26.6668V66.6666H24.5604C22.383 63.5367 18.8127 61.6695 15 61.6666ZM30 67.8287V42.4361L31.9791 41.6668H48.3332V71.6668H32.5586L30 67.8287ZM67.4414 71.6666H51.6666V41.6666H70V67.8287L67.4414 71.6666ZM85 81.6666C80.3977 81.6666 76.6666 77.9355 76.6666 73.3332C76.6666 68.7309 80.3977 64.9998 85 64.9998C89.6024 64.9998 93.3334 68.7309 93.3334 73.3332C93.328 77.9336 89.6002 81.6613 85 81.6666ZM96.6668 66.6666H94.5604C92.3852 63.5346 88.8137 61.6666 85.0002 61.6666C81.1868 61.6666 77.6153 63.5346 75.4401 66.6666H73.3336V53.5541L96.667 56.4664V66.6666H96.6668Z" fill="black"/>
<path d="M15 68.3334C12.2387 68.3334 10 70.5721 10 73.3334C10 76.0947 12.2387 78.3334 15 78.3334C17.7613 78.3334 20 76.0947 20 73.3334C19.9971 70.5733 17.7602 68.3363 15 68.3334ZM15 75C14.0795 75 13.3334 74.2539 13.3334 73.3334C13.3334 72.4129 14.0797 71.6668 15 71.6668C15.9205 71.6668 16.6666 72.4131 16.6666 73.3334C16.666 74.2535 15.9203 74.9994 15 75Z" fill="black"/>
<path d="M85.0001 68.3334C82.2387 68.3334 80.0001 70.5721 80.0001 73.3334C80.0001 76.0947 82.2387 78.3334 85.0001 78.3334C87.7614 78.3334 90.0001 76.0947 90.0001 73.3334C89.9971 70.5733 87.7602 68.3363 85.0001 68.3334ZM85.0001 75C84.0796 75 83.3335 74.2539 83.3335 73.3334C83.3335 72.4129 84.0796 71.6668 85.0001 71.6668C85.9206 71.6668 86.6667 72.4131 86.6667 73.3334C86.6661 74.2535 85.9204 74.9994 85.0001 75Z" fill="black"/>
<path d="M65 45H56.6666C56.2244 44.9998 55.8004 45.1752 55.4879 45.4879C55.1752 45.8006 54.9998 46.2246 55 46.6666V53.3332C54.9998 53.7754 55.1752 54.1994 55.4879 54.5119C55.8006 54.8246 56.2246 55 56.6666 54.9998H65C65.4422 55 65.8662 54.8246 66.1787 54.5119C66.4914 54.1992 66.6668 53.7752 66.6666 53.3332V46.6666C66.6668 46.2244 66.4914 45.8004 66.1787 45.4879C65.8662 45.1752 65.4422 44.9998 65 45ZM63.3334 51.6666H58.3334V48.3332H63.3334V51.6666Z" fill="black"/>
<path d="M43.3335 45H35.0001C34.5579 44.9998 34.1339 45.1752 33.8214 45.4879C33.5089 45.8006 33.3333 46.2246 33.3335 46.6666V53.3332C33.3333 53.7754 33.5087 54.1994 33.8214 54.5119C34.134 54.8244 34.5581 55 35.0001 54.9998H43.3335C43.7756 55 44.1997 54.8246 44.5122 54.5119C44.8247 54.1992 45.0003 53.7752 45.0001 53.3332V46.6666C45.0003 46.2244 44.8249 45.8004 44.5122 45.4879C44.1995 45.1754 43.7755 44.9998 43.3335 45ZM41.6669 51.6666H36.6669V48.3332H41.6669V51.6666Z" fill="black"/>
<path d="M44.6356 58.9584C44.0602 58.2395 43.011 58.1229 42.2919 58.698L39.1669 61.1981L36.0419 58.698C35.5768 58.3246 34.9475 58.2279 34.3919 58.4445C33.8362 58.6613 33.4385 59.1584 33.3491 59.7481C33.2596 60.3377 33.4921 60.9305 33.9585 61.3022L36.4975 63.3334L33.9585 65.3647C33.2415 65.9406 33.126 66.9883 33.7005 67.7065C34.2751 68.4246 35.3225 68.542 36.0417 67.969L39.1667 65.4689L42.2917 67.969C43.011 68.542 44.0585 68.4246 44.6329 67.7065C45.2075 66.9883 45.0921 65.9406 44.3749 65.3647L41.8358 63.3334L44.3749 61.3022C45.0932 60.7262 45.2096 59.6777 44.6356 58.9584Z" fill="black"/>
<path d="M66.3022 58.9584C65.7268 58.2395 64.6776 58.1229 63.9584 58.698L60.8334 61.1981L57.7084 58.698C57.2434 58.3246 56.6141 58.2279 56.0584 58.4445C55.5028 58.6613 55.1051 59.1584 55.0157 59.7481C54.9262 60.3377 55.1586 60.9305 55.625 61.3022L58.1641 63.3334L55.625 65.3647C54.908 65.9406 54.7926 66.9883 55.367 67.7065C55.9416 68.4246 56.9891 68.542 57.7082 67.969L60.8332 65.4689L63.9582 67.969C64.6776 68.542 65.725 68.4246 66.2994 67.7065C66.8741 66.9883 66.7586 65.9406 66.0414 65.3647L63.5024 63.3334L66.0414 61.3022C66.7598 60.7262 66.8764 59.6777 66.3022 58.9584Z" fill="black"/>
</g>
<defs>
<clipPath id="clip0">
<rect width="100" height="100" fill="white"/>
</clipPath>
</defs>
</svg>
